<?xml version="1.0" encoding="UTF-8"?><svg id="Calque_2" xmlns="http://www.w3.org/2000/svg" xmlns:xlink="http://www.w3.org/1999/xlink" viewBox="0 0 229.3 299.08"><defs><style>.cls-1{fill:url(#Super_Soft_Black_Vignette);stroke:#fff;stroke-miterlimit:10;stroke-width:3px;}</style><radialGradient id="Super_Soft_Black_Vignette" cx="114.65" cy="149.3" fx="114.65" fy="149.3" r="131.62" gradientUnits="userSpaceOnUse"><stop offset=".57" stop-color="#130c0e"/><stop offset=".8" stop-color="#130c0e"/><stop offset="1" stop-color="#130c0e"/></radialGradient></defs><g id="Layer_1"><path class="cls-1" d="m138.36,187c.35-8.8.01-17.62.19-26.44l89.25,26.36v-29.13l-88.88-48.92c-.02-1.04.06-2.09.03-3.13-.7-22.84-1.57-45.85-3.63-68.59-1.28-14.13-4.39-35.65-20.68-35.65-17.23,0-19.57,24.34-20.69,38.26-1.65,20.75-2.8,41.54-3.5,62.35-.08,2.24.03,4.49-.02,6.73L1.5,157.79v29.13l88.76-26.22c.03,1.48-.05,2.95-.01,4.42.61,25.47,1.51,51.13,3.37,76.52.34,4.62,1.25,9.96,2.55,15.2l-27.97,24.65v15.61l46.45-13.05,46.45,13.05v-15.61l-28.41-25.04c.95-4.38,1.65-8.79,2.19-12.74,2.55-18.76,2.73-37.79,3.47-56.71Z"/></g></svg>